<mxfile host="app.diagrams.net" modified="2022-06-30T11:54:40.639Z" agent="5.0 (Macintosh; Intel Mac OS X 10_15_7) AppleWebKit/537.36 (KHTML, like Gecko) Chrome/102.0.0.0 Safari/537.36" etag="0DWp9ycJKr8FTKwWcNF3" version="20.0.4" type="github">
  <diagram id="ShRAFsg78wUHMMkF32CU" name="Page-1">
    <mxGraphModel dx="1207" dy="1705" grid="1" gridSize="10" guides="1" tooltips="1" connect="1" arrows="1" fold="1" page="1" pageScale="1" pageWidth="850" pageHeight="1100" math="0" shadow="0">
      <root>
        <mxCell id="0" />
        <mxCell id="1" parent="0" />
        <mxCell id="LVvxu3JHyVGFzqEDAi9G-54" value="" style="group" vertex="1" connectable="0" parent="1">
          <mxGeometry x="90" y="-80" width="690" height="448" as="geometry" />
        </mxCell>
        <mxCell id="LVvxu3JHyVGFzqEDAi9G-40" value="App of Client X" style="swimlane;childLayout=stackLayout;resizeParent=1;resizeParentMax=0;horizontal=1;startSize=20;horizontalStack=0;" vertex="1" parent="LVvxu3JHyVGFzqEDAi9G-54">
          <mxGeometry width="690" height="448" as="geometry" />
        </mxCell>
        <mxCell id="LVvxu3JHyVGFzqEDAi9G-41" value="Layer 1" style="swimlane;startSize=20;horizontal=0;" vertex="1" parent="LVvxu3JHyVGFzqEDAi9G-40">
          <mxGeometry y="20" width="690" height="94" as="geometry" />
        </mxCell>
        <mxCell id="LVvxu3JHyVGFzqEDAi9G-51" value="100% Customize&lt;br&gt;Adapt Code&lt;br&gt;" style="text;html=1;align=left;verticalAlign=middle;resizable=0;points=[];autosize=1;strokeColor=none;fillColor=none;" vertex="1" parent="LVvxu3JHyVGFzqEDAi9G-41">
          <mxGeometry x="30" y="20" width="110" height="40" as="geometry" />
        </mxCell>
        <mxCell id="LVvxu3JHyVGFzqEDAi9G-42" value="Layer 2" style="swimlane;startSize=20;horizontal=0;" vertex="1" parent="LVvxu3JHyVGFzqEDAi9G-40">
          <mxGeometry y="114" width="690" height="114" as="geometry" />
        </mxCell>
        <mxCell id="LVvxu3JHyVGFzqEDAi9G-52" value="Parametrized&lt;br&gt;Specific to each App&lt;br&gt;Standardized for each user" style="text;html=1;align=left;verticalAlign=middle;resizable=0;points=[];autosize=1;strokeColor=none;fillColor=none;" vertex="1" parent="LVvxu3JHyVGFzqEDAi9G-42">
          <mxGeometry x="30" y="16" width="170" height="60" as="geometry" />
        </mxCell>
        <mxCell id="LVvxu3JHyVGFzqEDAi9G-43" value="Layer 3" style="swimlane;startSize=20;horizontal=0;perimeterSpacing=1;" vertex="1" parent="LVvxu3JHyVGFzqEDAi9G-40">
          <mxGeometry y="228" width="690" height="220" as="geometry">
            <mxRectangle y="228" width="690" height="30" as="alternateBounds" />
          </mxGeometry>
        </mxCell>
        <mxCell id="LVvxu3JHyVGFzqEDAi9G-53" value="Profiled&lt;br&gt;Specific to each user" style="text;whiteSpace=wrap;html=1;" vertex="1" parent="LVvxu3JHyVGFzqEDAi9G-43">
          <mxGeometry x="25" y="12" width="180" height="70" as="geometry" />
        </mxCell>
        <mxCell id="LVvxu3JHyVGFzqEDAi9G-46" value="" style="group" vertex="1" connectable="0" parent="LVvxu3JHyVGFzqEDAi9G-54">
          <mxGeometry x="90" y="40" width="520" height="400" as="geometry" />
        </mxCell>
        <mxCell id="LVvxu3JHyVGFzqEDAi9G-2" value="LAYER 1&lt;br&gt;app.R" style="text;html=1;strokeColor=#666666;fillColor=#f5f5f5;align=center;verticalAlign=middle;whiteSpace=wrap;rounded=0;strokeWidth=2;fontColor=#333333;" vertex="1" parent="LVvxu3JHyVGFzqEDAi9G-46">
          <mxGeometry x="200" width="120" height="50" as="geometry" />
        </mxCell>
        <mxCell id="LVvxu3JHyVGFzqEDAi9G-4" value="&lt;font style=&quot;font-size: 11px;&quot;&gt;OdapesSetting.R&lt;/font&gt;" style="text;html=1;strokeColor=#b85450;fillColor=#f8cecc;align=center;verticalAlign=middle;whiteSpace=wrap;rounded=0;strokeWidth=2;" vertex="1" parent="LVvxu3JHyVGFzqEDAi9G-46">
          <mxGeometry x="200" y="100" width="120" height="30" as="geometry" />
        </mxCell>
        <mxCell id="LVvxu3JHyVGFzqEDAi9G-33" style="edgeStyle=orthogonalEdgeStyle;rounded=0;orthogonalLoop=1;jettySize=auto;html=1;exitX=0.5;exitY=1;exitDx=0;exitDy=0;entryX=0.5;entryY=0;entryDx=0;entryDy=0;" edge="1" parent="LVvxu3JHyVGFzqEDAi9G-46" source="LVvxu3JHyVGFzqEDAi9G-2" target="LVvxu3JHyVGFzqEDAi9G-4">
          <mxGeometry relative="1" as="geometry" />
        </mxCell>
        <mxCell id="LVvxu3JHyVGFzqEDAi9G-5" value="&lt;font style=&quot;font-size: 11px;&quot;&gt;ods_table.R&lt;/font&gt;" style="text;html=1;strokeColor=#82b366;fillColor=#d5e8d4;align=center;verticalAlign=middle;whiteSpace=wrap;rounded=0;strokeWidth=2;" vertex="1" parent="LVvxu3JHyVGFzqEDAi9G-46">
          <mxGeometry x="200" y="200" width="120" height="30" as="geometry" />
        </mxCell>
        <mxCell id="LVvxu3JHyVGFzqEDAi9G-31" style="edgeStyle=orthogonalEdgeStyle;rounded=0;orthogonalLoop=1;jettySize=auto;html=1;exitX=0.5;exitY=1;exitDx=0;exitDy=0;" edge="1" parent="LVvxu3JHyVGFzqEDAi9G-46" source="LVvxu3JHyVGFzqEDAi9G-4" target="LVvxu3JHyVGFzqEDAi9G-5">
          <mxGeometry relative="1" as="geometry" />
        </mxCell>
        <mxCell id="LVvxu3JHyVGFzqEDAi9G-12" value="user data" style="shape=parallelogram;html=1;strokeWidth=2;perimeter=parallelogramPerimeter;whiteSpace=wrap;rounded=1;arcSize=12;size=0.23;fillColor=#fff2cc;strokeColor=#d6b656;" vertex="1" parent="LVvxu3JHyVGFzqEDAi9G-46">
          <mxGeometry x="12.5" y="270" width="95" height="30" as="geometry" />
        </mxCell>
        <mxCell id="LVvxu3JHyVGFzqEDAi9G-25" style="edgeStyle=orthogonalEdgeStyle;rounded=0;orthogonalLoop=1;jettySize=auto;html=1;exitX=0.5;exitY=1;exitDx=0;exitDy=0;entryX=0.5;entryY=0;entryDx=0;entryDy=0;" edge="1" parent="LVvxu3JHyVGFzqEDAi9G-46" source="LVvxu3JHyVGFzqEDAi9G-5" target="LVvxu3JHyVGFzqEDAi9G-12">
          <mxGeometry relative="1" as="geometry" />
        </mxCell>
        <mxCell id="LVvxu3JHyVGFzqEDAi9G-14" value="&lt;font style=&quot;font-size: 11px;&quot;&gt;user table&lt;/font&gt;" style="text;html=1;strokeColor=#9673a6;fillColor=#e1d5e7;align=center;verticalAlign=middle;whiteSpace=wrap;rounded=0;strokeWidth=2;" vertex="1" parent="LVvxu3JHyVGFzqEDAi9G-46">
          <mxGeometry y="370" width="120" height="30" as="geometry" />
        </mxCell>
        <mxCell id="LVvxu3JHyVGFzqEDAi9G-15" value="&lt;span style=&quot;font-size: 11px;&quot;&gt;user_event table&lt;/span&gt;" style="text;html=1;strokeColor=#9673a6;fillColor=#e1d5e7;align=center;verticalAlign=middle;whiteSpace=wrap;rounded=0;strokeWidth=2;" vertex="1" parent="LVvxu3JHyVGFzqEDAi9G-46">
          <mxGeometry x="200" y="370" width="120" height="30" as="geometry" />
        </mxCell>
        <mxCell id="LVvxu3JHyVGFzqEDAi9G-16" value="&lt;span style=&quot;font-size: 11px;&quot;&gt;any other table&lt;/span&gt;" style="text;html=1;strokeColor=#9673a6;fillColor=#e1d5e7;align=center;verticalAlign=middle;whiteSpace=wrap;rounded=0;strokeWidth=2;" vertex="1" parent="LVvxu3JHyVGFzqEDAi9G-46">
          <mxGeometry x="400" y="370" width="120" height="30" as="geometry" />
        </mxCell>
        <mxCell id="LVvxu3JHyVGFzqEDAi9G-24" style="edgeStyle=orthogonalEdgeStyle;rounded=0;orthogonalLoop=1;jettySize=auto;html=1;exitX=0.5;exitY=1;exitDx=0;exitDy=0;entryX=0.5;entryY=0;entryDx=0;entryDy=0;" edge="1" parent="LVvxu3JHyVGFzqEDAi9G-46" source="LVvxu3JHyVGFzqEDAi9G-21" target="LVvxu3JHyVGFzqEDAi9G-15">
          <mxGeometry relative="1" as="geometry" />
        </mxCell>
        <mxCell id="LVvxu3JHyVGFzqEDAi9G-21" value="event data" style="shape=parallelogram;html=1;strokeWidth=2;perimeter=parallelogramPerimeter;whiteSpace=wrap;rounded=1;arcSize=12;size=0.23;fillColor=#fff2cc;strokeColor=#d6b656;" vertex="1" parent="LVvxu3JHyVGFzqEDAi9G-46">
          <mxGeometry x="212.5" y="270" width="95" height="30" as="geometry" />
        </mxCell>
        <mxCell id="LVvxu3JHyVGFzqEDAi9G-23" style="edgeStyle=orthogonalEdgeStyle;rounded=0;orthogonalLoop=1;jettySize=auto;html=1;exitX=0.5;exitY=1;exitDx=0;exitDy=0;entryX=0.5;entryY=0;entryDx=0;entryDy=0;" edge="1" parent="LVvxu3JHyVGFzqEDAi9G-46" source="LVvxu3JHyVGFzqEDAi9G-5" target="LVvxu3JHyVGFzqEDAi9G-21">
          <mxGeometry relative="1" as="geometry" />
        </mxCell>
        <mxCell id="LVvxu3JHyVGFzqEDAi9G-28" style="edgeStyle=orthogonalEdgeStyle;rounded=0;orthogonalLoop=1;jettySize=auto;html=1;exitX=0.5;exitY=1;exitDx=0;exitDy=0;entryX=0.5;entryY=0;entryDx=0;entryDy=0;" edge="1" parent="LVvxu3JHyVGFzqEDAi9G-46" source="LVvxu3JHyVGFzqEDAi9G-22" target="LVvxu3JHyVGFzqEDAi9G-16">
          <mxGeometry relative="1" as="geometry" />
        </mxCell>
        <mxCell id="LVvxu3JHyVGFzqEDAi9G-22" value="any data" style="shape=parallelogram;html=1;strokeWidth=2;perimeter=parallelogramPerimeter;whiteSpace=wrap;rounded=1;arcSize=12;size=0.23;fillColor=#fff2cc;strokeColor=#d6b656;" vertex="1" parent="LVvxu3JHyVGFzqEDAi9G-46">
          <mxGeometry x="412.5" y="270" width="95" height="30" as="geometry" />
        </mxCell>
        <mxCell id="LVvxu3JHyVGFzqEDAi9G-27" style="edgeStyle=orthogonalEdgeStyle;rounded=0;orthogonalLoop=1;jettySize=auto;html=1;exitX=0.5;exitY=1;exitDx=0;exitDy=0;entryX=0.5;entryY=0;entryDx=0;entryDy=0;" edge="1" parent="LVvxu3JHyVGFzqEDAi9G-46" source="LVvxu3JHyVGFzqEDAi9G-5" target="LVvxu3JHyVGFzqEDAi9G-22">
          <mxGeometry relative="1" as="geometry" />
        </mxCell>
        <mxCell id="LVvxu3JHyVGFzqEDAi9G-30" value="Decides" style="ellipse;whiteSpace=wrap;html=1;align=center;newEdgeStyle={&quot;edgeStyle&quot;:&quot;entityRelationEdgeStyle&quot;,&quot;startArrow&quot;:&quot;none&quot;,&quot;endArrow&quot;:&quot;none&quot;,&quot;segment&quot;:10,&quot;curved&quot;:1};treeFolding=1;treeMoving=1;" vertex="1" collapsed="1" parent="LVvxu3JHyVGFzqEDAi9G-46">
          <mxGeometry x="210" y="140" width="100" height="40" as="geometry" />
        </mxCell>
        <mxCell id="LVvxu3JHyVGFzqEDAi9G-35" style="edgeStyle=orthogonalEdgeStyle;rounded=0;orthogonalLoop=1;jettySize=auto;html=1;exitX=0;exitY=0.5;exitDx=0;exitDy=0;" edge="1" parent="LVvxu3JHyVGFzqEDAi9G-46" source="LVvxu3JHyVGFzqEDAi9G-32" target="LVvxu3JHyVGFzqEDAi9G-30">
          <mxGeometry relative="1" as="geometry" />
        </mxCell>
        <mxCell id="LVvxu3JHyVGFzqEDAi9G-32" value="parameters" style="shape=parallelogram;html=1;strokeWidth=2;perimeter=parallelogramPerimeter;whiteSpace=wrap;rounded=1;arcSize=12;size=0.23;fillColor=#ffe6cc;strokeColor=#d79b00;" vertex="1" parent="LVvxu3JHyVGFzqEDAi9G-46">
          <mxGeometry x="370" y="145" width="95" height="30" as="geometry" />
        </mxCell>
        <mxCell id="LVvxu3JHyVGFzqEDAi9G-34" style="edgeStyle=orthogonalEdgeStyle;rounded=0;orthogonalLoop=1;jettySize=auto;html=1;exitX=1;exitY=0.5;exitDx=0;exitDy=0;" edge="1" parent="LVvxu3JHyVGFzqEDAi9G-46" source="LVvxu3JHyVGFzqEDAi9G-2" target="LVvxu3JHyVGFzqEDAi9G-32">
          <mxGeometry relative="1" as="geometry" />
        </mxCell>
        <mxCell id="LVvxu3JHyVGFzqEDAi9G-29" value="Executes" style="ellipse;whiteSpace=wrap;html=1;align=center;newEdgeStyle={&quot;edgeStyle&quot;:&quot;entityRelationEdgeStyle&quot;,&quot;startArrow&quot;:&quot;none&quot;,&quot;endArrow&quot;:&quot;none&quot;,&quot;segment&quot;:10,&quot;curved&quot;:1};treeFolding=1;treeMoving=1;" vertex="1" collapsed="1" parent="LVvxu3JHyVGFzqEDAi9G-46">
          <mxGeometry x="10" y="310" width="100" height="40" as="geometry" />
        </mxCell>
        <mxCell id="LVvxu3JHyVGFzqEDAi9G-26" style="edgeStyle=orthogonalEdgeStyle;rounded=0;orthogonalLoop=1;jettySize=auto;html=1;exitX=0.5;exitY=1;exitDx=0;exitDy=0;entryX=0.5;entryY=0;entryDx=0;entryDy=0;startArrow=none;" edge="1" parent="LVvxu3JHyVGFzqEDAi9G-46" source="LVvxu3JHyVGFzqEDAi9G-29" target="LVvxu3JHyVGFzqEDAi9G-14">
          <mxGeometry relative="1" as="geometry" />
        </mxCell>
        <mxCell id="LVvxu3JHyVGFzqEDAi9G-37" value="" style="edgeStyle=orthogonalEdgeStyle;rounded=0;orthogonalLoop=1;jettySize=auto;html=1;exitX=0.5;exitY=1;exitDx=0;exitDy=0;entryX=0.5;entryY=0;entryDx=0;entryDy=0;endArrow=none;" edge="1" parent="LVvxu3JHyVGFzqEDAi9G-46" source="LVvxu3JHyVGFzqEDAi9G-12" target="LVvxu3JHyVGFzqEDAi9G-29">
          <mxGeometry relative="1" as="geometry">
            <mxPoint x="60" y="300" as="sourcePoint" />
            <mxPoint x="60" y="370" as="targetPoint" />
          </mxGeometry>
        </mxCell>
        <mxCell id="LVvxu3JHyVGFzqEDAi9G-38" value="Executes" style="ellipse;whiteSpace=wrap;html=1;align=center;newEdgeStyle={&quot;edgeStyle&quot;:&quot;entityRelationEdgeStyle&quot;,&quot;startArrow&quot;:&quot;none&quot;,&quot;endArrow&quot;:&quot;none&quot;,&quot;segment&quot;:10,&quot;curved&quot;:1};treeFolding=1;treeMoving=1;" vertex="1" collapsed="1" parent="LVvxu3JHyVGFzqEDAi9G-46">
          <mxGeometry x="210" y="310" width="100" height="40" as="geometry" />
        </mxCell>
        <mxCell id="LVvxu3JHyVGFzqEDAi9G-39" value="Executes" style="ellipse;whiteSpace=wrap;html=1;align=center;newEdgeStyle={&quot;edgeStyle&quot;:&quot;entityRelationEdgeStyle&quot;,&quot;startArrow&quot;:&quot;none&quot;,&quot;endArrow&quot;:&quot;none&quot;,&quot;segment&quot;:10,&quot;curved&quot;:1};treeFolding=1;treeMoving=1;" vertex="1" collapsed="1" parent="LVvxu3JHyVGFzqEDAi9G-46">
          <mxGeometry x="410" y="310" width="100" height="40" as="geometry" />
        </mxCell>
      </root>
    </mxGraphModel>
  </diagram>
</mxfile>
